# xmcd
#
# Track frame offsets:
#	150
#	18914
#	33048
#	55383
#	70550
#	86842
#	102771
#	118388
#	139472
#	155349
#	173263
#	189552
#	209092
#	224719
#	248246
#	266761
#	284125
#
# Disc length: 3996 seconds
#
# Revision: 1
# Processed by: cddbd v1.4PL0 Copyright (c) Steve Scherf et al.
# Submitted via: audiograbber 1.80.04
#
DISCID=060f9a11
DTITLE=De Los Andes - De Los Andes
DYEAR=1900
DGENRE=
TTITLE0=En Mi Sueno
TTITLE1=Cruda Manzanita
TTITLE2=Amanecer Del Condor
TTITLE3=Amor De Mi Vida
TTITLE4=Liliacha Del Campo
TTITLE5=Caminos Del Sur
TTITLE6=Amores Pasan
TTITLE7=Flor De Azucena
TTITLE8=Cuatro De Noviembre
TTITLE9=Fiebre De Amor
TTITLE10=Elsa
TTITLE11=Manantial
TTITLE12=Juramento
TTITLE13=Si Tu Te Vas
TTITLE14=Tierra Linda
TTITLE15=Viento
TTITLE16=La Magia De La Madera
EXTD=
EXTT0=
EXTT1=
EXTT2=
EXTT3=
EXTT4=
EXTT5=
EXTT6=
EXTT7=
EXTT8=
EXTT9=
EXTT10=
EXTT11=
EXTT12=
EXTT13=
EXTT14=
EXTT15=
EXTT16=
PLAYORDER=
